<?xml version="1.0" encoding="UTF-8" ?>
<svg version="1.1" viewBox="68 68 174 194" xmlns="http://www.w3.org/2000/svg" shape-rendering="crispEdges">
<rect x="120" y="70" width="70" height="10" fill="#000000" />
<rect x="100" y="80" width="20" height="10" fill="#000000" />
<rect x="120" y="80" width="10" height="20" fill="#D8E4E4" />
<rect x="130" y="80" width="10" height="20" fill="#9AA5AB" />
<rect x="140" y="80" width="20" height="20" fill="#D8E4E4" />
<rect x="160" y="80" width="10" height="30" fill="#9AA5AB" />
<rect x="170" y="80" width="10" height="30" fill="#D8E4E4" />
<rect x="180" y="80" width="10" height="30" fill="#9AA5AB" />
<rect x="190" y="80" width="20" height="10" fill="#000000" />
<rect x="90" y="90" width="10" height="10" fill="#000000" />
<rect x="100" y="90" width="10" height="20" fill="#D8E4E4" />
<rect x="110" y="90" width="10" height="20" fill="#9AA5AB" />
<rect x="190" y="90" width="20" height="20" fill="#D8E4E4" />
<rect x="210" y="90" width="10" height="10" fill="#000000" />
<rect x="80" y="100" width="10" height="20" fill="#000000" />
<rect x="90" y="100" width="10" height="10" fill="#9AA5AB" />
<rect x="120" y="100" width="10" height="10" fill="#9AA5AB" />
<rect x="130" y="100" width="10" height="20" fill="#D8E4E4" />
<rect x="140" y="100" width="10" height="10" fill="#9AA5AB" />
<rect x="150" y="100" width="10" height="30" fill="#D8E4E4" />
<rect x="210" y="100" width="10" height="20" fill="#9AA5AB" />
<rect x="220" y="100" width="10" height="20" fill="#000000" />
<rect x="90" y="110" width="10" height="10" fill="#D8E4E4" />
<rect x="100" y="110" width="10" height="30" fill="#7A8894" />
<rect x="110" y="110" width="10" height="10" fill="#D8E4E4" />
<rect x="120" y="110" width="10" height="20" fill="#7A8894" />
<rect x="140" y="110" width="10" height="40" fill="#7A8894" />
<rect x="160" y="110" width="10" height="10" fill="#D8E4E4" />
<rect x="170" y="110" width="10" height="30" fill="#7A8894" />
<rect x="180" y="110" width="10" height="10" fill="#D8E4E4" />
<rect x="190" y="110" width="10" height="20" fill="#7A8894" />
<rect x="200" y="110" width="10" height="10" fill="#D8E4E4" />
<rect x="70" y="120" width="10" height="80" fill="#000000" />
<rect x="80" y="120" width="10" height="10" fill="#D8E4E4" />
<rect x="90" y="120" width="10" height="10" fill="#9AA5AB" />
<rect x="110" y="120" width="10" height="10" fill="#7A8894" />
<rect x="130" y="120" width="10" height="10" fill="#9AA5AB" />
<rect x="160" y="120" width="10" height="10" fill="#9AA5AB" />
<rect x="180" y="120" width="10" height="10" fill="#7A8894" />
<rect x="200" y="120" width="10" height="10" fill="#9AA5AB" />
<rect x="210" y="120" width="10" height="10" fill="#D8E4E4" />
<rect x="220" y="120" width="10" height="20" fill="#9AA5AB" />
<rect x="230" y="120" width="10" height="80" fill="#000000" />
<rect x="80" y="130" width="10" height="10" fill="#9AA5AB" />
<rect x="90" y="130" width="10" height="50" fill="#7A8894" />
<rect x="110" y="130" width="20" height="10" fill="#C6B98D" />
<rect x="130" y="130" width="10" height="10" fill="#7A8894" />
<rect x="150" y="130" width="10" height="10" fill="#9AA5AB" />
<rect x="160" y="130" width="10" height="20" fill="#7A8894" />
<rect x="180" y="130" width="20" height="10" fill="#C6B98D" />
<rect x="200" y="130" width="20" height="10" fill="#7A8894" />
<rect x="80" y="140" width="10" height="10" fill="#7A8894" />
<rect x="100" y="140" width="10" height="40" fill="#C6B98D" />
<rect x="110" y="140" width="30" height="30" fill="#DDD1AD" />
<rect x="150" y="140" width="10" height="10" fill="#7A8894" />
<rect x="170" y="140" width="30" height="30" fill="#DDD1AD" />
<rect x="200" y="140" width="10" height="40" fill="#C6B98D" />
<rect x="210" y="140" width="20" height="10" fill="#7A8894" />
<rect x="80" y="150" width="10" height="10" fill="#9AA5AB" />
<rect x="140" y="150" width="30" height="30" fill="#DDD1AD" />
<rect x="210" y="150" width="10" height="30" fill="#7A8894" />
<rect x="220" y="150" width="10" height="10" fill="#9AA5AB" />
<rect x="80" y="160" width="10" height="10" fill="#000000" />
<rect x="220" y="160" width="10" height="10" fill="#000000" />
<rect x="80" y="170" width="10" height="10" fill="#A89168" />
<rect x="110" y="170" width="10" height="20" fill="#DDD1AD" />
<rect x="120" y="170" width="10" height="10" fill="#C6B98D" />
<rect x="130" y="170" width="10" height="10" fill="#A89168" />
<rect x="170" y="170" width="10" height="10" fill="#A89168" />
<rect x="180" y="170" width="10" height="10" fill="#C6B98D" />
<rect x="190" y="170" width="10" height="20" fill="#DDD1AD" />
<rect x="220" y="170" width="10" height="10" fill="#A89168" />
<rect x="80" y="180" width="10" height="10" fill="#C6B98D" />
<rect x="90" y="180" width="10" height="20" fill="#0A0A0A" />
<rect x="100" y="180" width="10" height="10" fill="#DDD1AD" />
<rect x="120" y="180" width="10" height="10" fill="#DDD1AD" />
<rect x="130" y="180" width="10" height="10" fill="#C6B98D" />
<rect x="140" y="180" width="10" height="10" fill="#A89168" />
<rect x="150" y="180" width="10" height="10" fill="#DDD1AD" />
<rect x="160" y="180" width="10" height="10" fill="#A89168" />
<rect x="170" y="180" width="10" height="10" fill="#C6B98D" />
<rect x="180" y="180" width="10" height="10" fill="#DDD1AD" />
<rect x="200" y="180" width="10" height="10" fill="#DDD1AD" />
<rect x="210" y="180" width="10" height="20" fill="#0A0A0A" />
<rect x="220" y="180" width="10" height="10" fill="#C6B98D" />
<rect x="80" y="190" width="10" height="10" fill="#DDD1AD" />
<rect x="100" y="190" width="110" height="10" fill="#0A0A0A" />
<rect x="220" y="190" width="10" height="10" fill="#DDD1AD" />
<rect x="80" y="200" width="20" height="10" fill="#000000" />
<rect x="100" y="200" width="30" height="10" fill="#0A0A0A" />
<rect x="130" y="200" width="10" height="10" fill="#303030" />
<rect x="140" y="200" width="10" height="10" fill="#0A0A0A" />
<rect x="150" y="200" width="10" height="10" fill="#A89168" />
<rect x="160" y="200" width="30" height="10" fill="#0A0A0A" />
<rect x="190" y="200" width="10" height="10" fill="#303030" />
<rect x="200" y="200" width="10" height="10" fill="#0A0A0A" />
<rect x="210" y="200" width="20" height="10" fill="#000000" />
<rect x="90" y="210" width="10" height="10" fill="#000000" />
<rect x="100" y="210" width="10" height="10" fill="#A89168" />
<rect x="110" y="210" width="30" height="10" fill="#0A0A0A" />
<rect x="140" y="210" width="10" height="10" fill="#C6B98D" />
<rect x="150" y="210" width="10" height="20" fill="#DDD1AD" />
<rect x="160" y="210" width="10" height="10" fill="#C6B98D" />
<rect x="170" y="210" width="30" height="10" fill="#0A0A0A" />
<rect x="200" y="210" width="10" height="10" fill="#A89168" />
<rect x="210" y="210" width="10" height="10" fill="#000000" />
<rect x="100" y="220" width="10" height="10" fill="#000000" />
<rect x="110" y="220" width="10" height="10" fill="#A89168" />
<rect x="120" y="220" width="30" height="10" fill="#DDD1AD" />
<rect x="160" y="220" width="30" height="10" fill="#DDD1AD" />
<rect x="190" y="220" width="10" height="10" fill="#A89168" />
<rect x="200" y="220" width="10" height="10" fill="#000000" />
<rect x="110" y="230" width="10" height="10" fill="#000000" />
<rect x="120" y="230" width="10" height="10" fill="#C6B98D" />
<rect x="130" y="230" width="10" height="20" fill="#DDD1AD" />
<rect x="140" y="230" width="10" height="10" fill="#C6B98D" />
<rect x="150" y="230" width="10" height="10" fill="#A89168" />
<rect x="160" y="230" width="10" height="10" fill="#C6B98D" />
<rect x="170" y="230" width="10" height="20" fill="#DDD1AD" />
<rect x="180" y="230" width="10" height="10" fill="#C6B98D" />
<rect x="190" y="230" width="10" height="10" fill="#000000" />
<rect x="120" y="240" width="10" height="10" fill="#000000" />
<rect x="140" y="240" width="30" height="10" fill="#DDD1AD" />
<rect x="180" y="240" width="10" height="10" fill="#000000" />
<rect x="130" y="250" width="50" height="10" fill="#000000" />
</svg>